<svg xmlns="http://www.w3.org/2000/svg" viewBox="0 0 278.33 126.8"><defs><style>.cls-1,.cls-4{fill:#c69c6d;}.cls-1{opacity:0.5;}.cls-2{fill:#fff;}.cls-3{fill:#e6e7e8;}</style></defs><title>Asset 2</title><g id="Layer_2" data-name="Layer 2"><g id="Layer_1-2" data-name="Layer 1"><polygon class="cls-1" points="278.33 0 142.33 0 141.33 0 5.33 0 5.33 75 141.33 126.62 141.33 126.62 141.83 126.8 142.33 126.62 142.33 126.62 278.33 75 278.33 0"/><polygon class="cls-2" points="273 0 137 0 136 0 0 0 0 68 136 119.62 136 120 136.5 119.81 137 120 137 119.62 273 68 273 0"/><path class="cls-3" d="M78,59.64V76.26H68.65V48.38H66.17V39h8a4.26,4.26,0,0,1,2.06.5,3.24,3.24,0,0,1,1.36,1.34l9.68,18L97.88,39h8V76.26H96.54V59.64l-4,7.94H82Z"/><path class="cls-3" d="M116.29,48.38V39h9.58a3.37,3.37,0,0,1,2.13.69,3.91,3.91,0,0,1,1.29,1.79l10.92,34.73h-8.78l-1.09-3.37H118.82l-1.09,3.37H109l8.88-27.89Zm8.29,7.1-3.23,9.82h6.45Z"/><path class="cls-3" d="M134.65,48.38V39h29.18v9.33H153.9V76.26h-9.33V48.38Z"/><path class="cls-3" d="M164.69,50.41a18.74,18.74,0,0,1,9.92-9.9A18.07,18.07,0,0,1,181.84,39h7.94v9.33h-7.94a9.14,9.14,0,0,0-3.62.72A9.25,9.25,0,0,0,173.28,54a9.49,9.49,0,0,0,0,7.24,9.25,9.25,0,0,0,4.94,4.94,9.13,9.13,0,0,0,3.62.72h7.94v9.33h-7.94a17.74,17.74,0,0,1-7.24-1.49,19.26,19.26,0,0,1-5.91-4,18.9,18.9,0,0,1-4-5.9,18.53,18.53,0,0,1,0-14.44Z"/><path class="cls-3" d="M203.47,59.49V76.26h-9.33V48.38h-2.48V39H201a2.46,2.46,0,0,1,2.48,2.48v9.28h10.22V39H223V76.26h-9.33V59.49Z"/><path class="cls-4" d="M73.32,56.47V73.1H64V45.21H61.51V35.88h8a4.26,4.26,0,0,1,2.06.5,3.24,3.24,0,0,1,1.36,1.34l9.68,18L93.21,35.88h8V73.1H91.87V56.47l-4,7.94H77.34Z"/><path class="cls-4" d="M111.62,45.21V35.88h9.58a3.37,3.37,0,0,1,2.13.69,3.91,3.91,0,0,1,1.29,1.79L135.54,73.1h-8.78l-1.09-3.37H114.15l-1.09,3.37h-8.73l8.88-27.89Zm8.29,7.1-3.23,9.82h6.45Z"/><path class="cls-4" d="M130,45.21V35.88h29.18v9.33h-9.92V73.1h-9.33V45.21Z"/><path class="cls-4" d="M160,47.25a18.74,18.74,0,0,1,9.92-9.9,18.07,18.07,0,0,1,7.22-1.46h7.94v9.33h-7.94a9.14,9.14,0,0,0-3.62.72,9.25,9.25,0,0,0-4.94,4.94,9.49,9.49,0,0,0,0,7.24A9.25,9.25,0,0,0,173.55,63a9.13,9.13,0,0,0,3.62.72h7.94V73.1h-7.94a17.74,17.74,0,0,1-7.24-1.49,19.26,19.26,0,0,1-5.91-4,18.9,18.9,0,0,1-4-5.9,18.53,18.53,0,0,1,0-14.44Z"/><path class="cls-4" d="M198.8,56.33V73.1h-9.33V45.21H187V35.88h9.33a2.46,2.46,0,0,1,2.48,2.48v9.28H209V35.88h9.33V73.1H209V56.33Z"/></g></g></svg>