<svg xmlns="http://www.w3.org/2000/svg" xmlns:xlink="http://www.w3.org/1999/xlink" viewBox="0 0 1076.45 263.69"><defs><style>.cls-1{fill:#439042;}.cls-2{fill:#4f9944;}.cls-3{fill:url(#radial-gradient);}.cls-4,.cls-5{fill:none;stroke:#fff;stroke-width:2.35px;}.cls-4{stroke-miterlimit:10;}.cls-5{stroke-linecap:round;stroke-linejoin:round;}</style><radialGradient id="radial-gradient" cx="542.72" cy="100.35" r="391.83" gradientUnits="userSpaceOnUse"><stop offset="0" stop-color="#8dc63f"/><stop offset="1" stop-color="#009444" stop-opacity="0"/></radialGradient></defs><title>Asset 1</title><g id="Layer_2" data-name="Layer 2"><g id="Layer_1-2" data-name="Layer 1"><polygon class="cls-1" points="852.17 0 538.5 0 537.95 0 224.28 0 0 263.69 537.95 263.69 538.5 263.69 1076.45 263.69 852.17 0"/><polygon class="cls-2" points="792.04 0 538.44 0 538 0 284.41 0 112.63 263.69 538 263.69 538.44 263.69 963.82 263.69 792.04 0"/><polygon class="cls-1" points="724.87 0 538.38 0 538.06 0 351.58 0 225.26 263.69 538.06 263.69 538.38 263.69 851.18 263.69 724.87 0"/><polygon class="cls-2" points="648.25 0 538.32 0 538.13 0 428.19 0 353.73 263.69 538.13 263.69 538.32 263.69 722.72 263.69 648.25 0"/><polygon class="cls-1" points="573.73 0 538.25 0 538.19 0 502.71 0 478.68 263.69 538.19 263.69 538.25 263.69 597.76 263.69 573.73 0"/><polygon class="cls-3" points="852.17 0 538.5 0 537.95 0 224.28 0 0 263.69 537.95 263.69 538.5 263.69 1076.45 263.69 852.17 0"/><polygon class="cls-4" points="538.47 247.12 59.84 247.12 245.88 11.29 538.47 11.29 538.47 247.12"/><polygon class="cls-4" points="537.98 247.12 1016.61 247.12 830.56 11.29 537.98 11.29 537.98 247.12"/><path class="cls-4" d="M995.12,247s-6.45-12,7.63-17.31"/><path class="cls-4" d="M817.85,11.19A19.69,19.69,0,0,0,837.21,20"/><path class="cls-4" d="M81.21,247s6.45-12-7.63-17.31"/><path class="cls-4" d="M258.48,11.19A19.69,19.69,0,0,1,239.12,20"/><polyline class="cls-4" points="205.78 63.4 292.61 63.4 239.81 153.74 134.8 153.74"/><path class="cls-5" d="M277,90.71c5.54,3.82,8.23,9.49,6.62,15.81-2.5,9.78-14.48,18-28.37,20.23"/><polyline class="cls-4" points="872.8 63.4 785.98 63.4 838.77 153.74 943.79 153.74"/><path class="cls-5" d="M801.58,90.71c-5.55,3.82-8.23,9.49-6.62,15.81,2.5,9.78,14.48,18,28.37,20.23"/><path class="cls-4" d="M590.39,120.61c-9.12,19.09-40.39,29.84-69.85,24s-45.95-26.05-36.83-45.15,40.39-29.84,69.85-24S599.51,101.52,590.39,120.61Z"/></g></g></svg>